Source: DVD5 PAL
Audio: Spanish AC3
Subtitles: English
 
http://www.imdb.com/title/tt1661862/

The protagonist is actually a cop Trinidad Santos came to under each day, a victim of alcohol goes right after lifeless in a brothel, inside a quandary killing 3 individuals. Try and erase all traces of their crimes and that sales opportunities him to discover some thing unknown dimensions. What follows is simmering about Arabs atentandos inflamed by using a bellicose interpretation from the words of their prophet.

Santos, a trigger-happy bestial, which racked balls of roncola as though it have been water, which passes from their bosses, grumpy and tough treatment method irascible, but very smart, will likely be tying up free ends, while the rest of the viewers by means of bus stations, protected homes, houses misplaced inside the middle of nowhere, where by the police will grow to be an not likely hero without attempting to succeed in an unintended redemption.

Exalted Jose Coronado in his purpose. His confront hidden beneath a fertile beard, a limp hair and also a cocky look challenging and provides his character the muscle to commit any act though transferring like a lizard skin go. Indeed, under the shell there’s a soul, probably black.

The script is unrelenting. It goes with dropper dosing details, we have been seeing the various elements of the puzzle, assembling all of it goes, until eventually finally anything fits and suits the undersigned only applaud wildly Urbizu proposal, which had eight añitos with no shooting nearly anything new. Urbizu thriller presents us an ideal, spherical, ten, sound concrete, bulletproof. A narrative product, which enriches the few Spanish cinema as national movies can.
Go see it.

The movie had the nice superior fortune to get pleasure from in the few cinemas inside the Gran Vía, the day following its initial in a very cinema that had more than a thousand seats. While in the absence of fifty percent an hour towards the stop, the projection was interrupted for technical reasons, but luckily we have been capable of lastly end her, and this is because the condition.


Format                                   : AVI
Format/Info                              : Audio Video Interleave
File size                                : 1.18 GiB
Duration                                 : 1h 49mn
Overall bit rate                         : 1 552 Kbps
Writing application                      : VirtualDubMod 1.5.4.1 (build 2178/release)
Writing library                          : VirtualDubMod build 2178/release

Video
ID                                       : 0
Format                                   : MPEG-4 Visual
Format profile                           : Advanced Simple@L5
Format settings, BVOP                    : 1
Format settings, QPel                    : No
Format settings, GMC                     : No warppoints
Format settings, Matrix                  : Custom
Codec ID                                 : XVID
Codec ID/Hint                            : XviD
Duration                                 : 1h 49mn
Bit rate                                 : 1 098 Kbps
Width                                    : 720 pixels
Height                                   : 320 pixels
Display aspect ratio                     : 2.25:1
Frame rate                               : 25.000 fps
Color space                              : YUV
Chroma subsampling                       : 4:2:0
Bit depth                                : 8 bits
Scan type                                : Progressive
Compression mode                         : Lossy
Bits/(Pixel*Frame)                       : 0.191
Stream size                              : 856 MiB (71%)
Writing library                          : XviD 64

Audio
ID                                       : 1
Format                                   : AC-3
Format/Info                              : Audio Coding 3
Mode extension                           : CM (complete main)
Codec ID                                 : 2000
Duration                                 : 1h 49mn
Bit rate mode                            : Constant
Bit rate                                 : 448 Kbps
Channel(s)                               : 6 channels
Channel positions                        : Front: L C R, Side: L R, LFE
Sampling rate                            : 48.0 KHz
Bit depth                                : 16 bits
Compression mode                         : Lossy
Stream size                              : 349 MiB (29%)
Alignment                                : Split accross interleaves
Interleave, duration                     : 96 ms (2.40 video frames)
Interleave, preload duration             : 96 ms
Language                                 : Spanish

